<svg width="1150" height="411" viewBox="0 0 100% 100%" fill="none" xmlns="http://www.w3.org/2000/svg">
<g clip-path="url(#clip0_1_2)">
<path d="M0 95.7372V411L1130.88 410.257L1150 383.263V68L364.5 68.743L346.5 95.5H280.5L152.5 95.7372L134 68.743H22.7844L0 95.7372Z" fill="#2E8E95" fill-opacity="0.03" stroke="#43E5F1" stroke-width="3"/>
<path d="M130 67H139.556L160 99H148.889L130 67Z" fill="#43E5F1"/>
<path d="M360.959 67H370L351.333 98H340L360.959 67Z" fill="#43E5F1"/>
<g filter="url(#filter0_f_1_2)">
<path d="M90 103.975L105.444 68H131.944L143.877 103.975H351.315L366.056 68H389.748L408 103.975L376.06 172H124.748L90 103.975Z" fill="#43E5F1" fill-opacity="0.1"/>
<path d="M90 103.975L105.444 68H131.944L143.877 103.975H351.315L366.056 68H389.748L408 103.975L376.06 172H124.748L90 103.975Z" stroke="#43E5F1"/>
</g>
<path d="M124.237 41L101 67H133.459L150.426 95H349.5L369.152 67H397L375.976 41H124.237Z" fill="#1EAAB5" fill-opacity="0.1"/>
</g>
<defs>
<filter id="filter0_f_1_2" x="50" y="28" width="398" height="184" filterUnits="userSpaceOnUse" color-interpolation-filters="sRGB">
<feFlood flood-opacity="0" result="BackgroundImageFix"/>
<feBlend mode="normal" in="SourceGraphic" in2="BackgroundImageFix" result="shape"/>
<feGaussianBlur stdDeviation="20" result="effect1_foregroundBlur_1_2"/>
</filter>
<clipPath id="clip0_1_2">
<rect width="100%" height="100%" fill="white"/>
</clipPath>
</defs>
</svg>
